<svg width="32" height="32" viewBox="0 0 32 32" fill="none" xmlns="http://www.w3.org/2000/svg">
<g opacity="0.8">
<path opacity="0.01" fill-rule="evenodd" clip-rule="evenodd" d="M0 32H32V0H0V32Z" fill="white"/>
<path fill-rule="evenodd" clip-rule="evenodd" d="M18.9515 18.0195H15.2235L14.0195 22.2915C13.903 22.641 13.5925 22.874 13.243 22.874H11.728C11.4565 22.874 11.262 22.641 11.34 22.369L12.5825 18.0585H9.67H8.1165C7.8445 18.0585 7.6505 17.8255 7.728 17.5535L8.1165 16.233C8.233 15.8835 8.544 15.6505 8.893 15.6505H9.709H13.2815L14.835 10.2135C14.9515 9.864 15.262 9.631 15.6115 9.631H17.126C17.398 9.631 17.5925 9.864 17.5145 10.136L15.9225 15.6505H18.9515C20.272 15.6505 21.359 14.563 21.359 13.243C21.359 12.5825 20.8155 12.039 20.1555 12.039H18.7575C18.4855 12.039 18.2915 11.806 18.369 11.534L18.7575 10.2135C18.874 9.864 19.1845 9.631 19.534 9.631H20.194C22.175 9.631 23.806 11.2235 23.767 13.204C23.767 15.8835 21.5925 18.0195 18.9515 18.0195ZM16 4C9.359 4 4 9.3595 4 16C4 22.641 9.359 28 16 28C22.641 28 28 22.641 28 16C28 9.3595 22.641 4 16 4Z" fill="white"/>
</g>
</svg>